<?xml version="1.0" encoding="UTF-8"?>
<svg id="Layer_1" data-name="Layer 1" xmlns="http://www.w3.org/2000/svg" viewBox="0 0 2000 2000">
  <defs>
    <style>
      .cls-1 {
        fill: #f39a18;
      }

      .cls-1, .cls-2, .cls-3, .cls-4, .cls-5, .cls-6, .cls-7, .cls-8, .cls-9, .cls-10, .cls-11 {
        stroke-width: 0px;
      }

      .cls-2 {
        fill: #ffc928;
      }

      .cls-3 {
        fill: #ff5757;
      }

      .cls-4 {
        fill: #343434;
      }

      .cls-5, .cls-11 {
        opacity: .2;
      }

      .cls-6 {
        fill: #2f1f7f;
      }

      .cls-7, .cls-11 {
        fill: #fff;
      }

      .cls-8 {
        fill: #17134f;
      }

      .cls-9 {
        fill: #f2c48d;
      }

      .cls-10 {
        opacity: .15;
      }
    </style>
  </defs>
  <g id="Logo">
    <g id="Lapis">
      <g>
        <path class="cls-2" d="M1106.1,673.1c-9.12-11.64-33.53-38.73-51.54-48.92-1.69-.96-36.15-20.87-37.89-21.9-51.87-29.22-165.89-91.54-168.21-92.67-31.79-15.44-63.45-31.15-95.5-46.04-12.41-5.76-25.52-10.21-38.63-14.2-13.08-3.99-18.84-.89-23.82,11.6-3.27,8.19-6.33,16.54-8.45,25.08-10.15,40.94-19.97,81.96-29.84,122.97-1.47,6.12-7.4,32.79-8.08,35.95,0,0-31.36,133.64-41.96,197.63-.44,2.67-1.43,8.99-.21,16.95,1.23,8.05,4.08,13.73,4.93,15.46,28.47,58.2,47.92,120.4,71.85,180.61,8.8,22.14,17.64,44.26,26.3,66,7.76-.87,14.51-2.34,21.25-2.28,78.88.71,157.76,2.67,236.62,2.13,44.09-.3,67.47,21.28,78.37,56.91,26.33,86.09,54.34,171.66,80.87,257.69,10.94,35.45-5.51,74.19-52.55,78.77-42.69,4.16-85.49,7.24-128.25,10.77-17.23,1.42-34.48,2.84-51.77,4.25,4.67,2.76,9.73,5.15,15.14,7.16,13.09,4.87,26.86,8.79,40.67,10.66,69.05,9.39,137.26,5.09,203.95-15.94,52.22-16.47,101.43-39.04,142.99-75.66,21.52-18.97,38.32-40.19,44.73-66.48,1.91-7.84,2.71-20.29,2.44-33.23-.14-6.7-.65-12.69-2.69-25.56-1.7-10.32-3.48-20.63-5.34-30.93-.47-2.6-.97-5.3-1.49-8.11-.69-3.71-1.38-7.42-2.09-11.12-.33-1.71-.66-3.46-1.01-5.23-2.33-11.98-4.78-23.95-7.37-35.9-16.37-75.62-35.49-150.52-59.62-223.98,0,0-68.64-233.73-153.81-342.47Z"/>
        <path id="Madeira" class="cls-9" d="M596.84,852.94c.12-6.04-.33-9.65.34-13,13.67-68.28,27.39-136.55,41.48-204.74.68-3.28,4.41-7.64,7.42-8.32,80.84-18.33,151.01-56.62,209.32-117.4,1.13-1.18,2.46-2.17,5.1-4.48,49.3,29.24,98.96,58.7,150.96,89.54-20.52,9.52-21.93,28.38-26.82,45.24-1.03,3.56-1.93,7.17-3.03,10.71-6.48,20.79-15.78,27.98-36.91,27.01-24.86-1.14-49.7-3.07-74.55-4.58-4.25-.26-8.51-.19-12.77-.19-19.07.03-34.38,7.43-44.37,24.63-9.92,17.08-19.53,34.35-29.35,51.49-4.99,8.72-10.31,17.23-15.18,26.02-8.45,15.27-22.08,19.41-37.66,17.74-13.66-1.46-27.25-4.09-40.74-6.92-22.64-4.74-40.25,2.78-54.55,20.97-11.87,15.1-24.59,29.47-38.7,46.25Z"/>
        <path class="cls-1" d="M819.98,1415.2c61.28,12.65,197.95,31.75,349.75-28.17,78.89-31.14,137.03-73.83,175.51-107.69,1.5,11.72,2.99,23.44,4.49,35.15-38.82,32.89-96.17,73.33-172.87,102.93-152.2,58.74-288.84,39.41-351.26,26.31-1.87-9.51-3.75-19.02-5.62-28.53Z"/>
        <path id="Ponta" class="cls-4" d="M858.15,513.89c-35.85,47.1-149.32,109.41-212.11,116.3,1.41-6.7,2.58-13.04,4.09-19.3,10.09-41.92,20.13-83.86,30.5-125.71,2.16-8.73,5.3-17.27,8.64-25.64,5.09-12.77,10.98-15.94,24.35-11.86,13.4,4.08,26.81,8.62,39.49,14.52,32.76,15.22,65.13,31.28,97.62,47.07,2.37,1.15,4.51,2.79,7.42,4.62Z"/>
        <polygon id="Sombra" class="cls-5" points="703.12 437.01 699.83 845.03 966.75 1562.71 883.36 1555.71 827.13 1472.48 584.48 853.23 657.61 490.76 692.64 427.02 703.12 437.01"/>
        <path id="Luz" class="cls-11" d="M682.62,436.04c155.24,80.47,260.33,173.28,324.65,239.33,55.45,56.95,105.08,108.72,148.12,192.41,13.39,26.04,37.62,109.66,85.53,275.83,27.11,94.02,39.32,138.79,42.96,203.73,3.27,58.23-1.82,106.56-6.87,139.12,21.36-21.97,42.71-43.94,64.07-65.91l15.05-109.93-133.9-456.17-131.04-223.54c-116.2-64.96-232.4-129.92-348.6-194.87-19.99,0-39.98,0-59.97-.01Z"/>
        <path class="cls-6" d="M1099.59,1444.42c-7.63-24.36-15.28-48.72-23-73.05-19.59-61.78-39.21-123.56-58.85-185.33-10.25-32.25-21.08-41.33-54.23-41.91-80.47-1.43-160.94-2.21-241.42-3.06-15.99-.17-24.8,11.02-19.53,27.1,9.86,30.1,21.35,59.66,32.39,90.07,2.56-1.42,3.98-2.12,5.3-2.96,24.02-15.39,50.23-24.3,78.81-23.52,40.22,1.09,65.17,37.88,52.22,75.21-.9,2.6.22,6.83,1.91,9.26,8.85,12.71,14.31,26.45,14.39,42.07.13,22.94-20.33,52.79-45.42,71.29,4.29,17.79,8.58,35.57,12.93,53.34,2.26,9.26,5.81,17.41,10.53,24.51,68.24-5.77,136.5-11.35,204.7-17.49,23.55-2.12,36.35-22.89,29.27-45.52Z"/>
        <path class="cls-2" d="M1290.05,634.29c-12.91-.62-25.59.76-36.78,8.12-34.77,22.87-50.54,65.68-39.25,105.81,5.25,18.66,15.22,34.7,27.47,49.35,6.53,7.81,9.44,15.93,7.7,26.17-2.41,14.16-4.57,28.42-5.7,42.73-.59,7.47-.04,15.57,2.27,22.63,5.18,15.82,11.95,31.11,17.77,46.73,9.19,24.7,18.13,49.49,27.72,75.73,2.26-3.32,4.05-5.45,5.3-7.87,25.79-49.62,44.83-101.74,56.69-156.36,2.26-10.43,6.4-18.19,14.29-25.52,29.18-27.09,38.17-61.28,29.61-99.36-9.33-41.51-64.66-86.12-107.1-88.15Z"/>
        <path id="Sombra-2" data-name="Sombra" class="cls-10" d="M1199.5,701.6c4.39-.92,6.44,29.93,31.46,43.41,14.28,7.7,23.35,2.89,35.85,14.15,6,5.4,5.77,8.19,19.82,23.54,8.76,9.57,11.96,11.89,15.83,13.45,9.72,3.9,14.54-.68,23.51.55,20.34,2.81,23.33,30.19,37.15,30.95,17.29.96,32.13-40.77,34.14-39.83,1.95.91-14.02,39.2-14.45,40.25-19.62,47.05-17.69,54.36-34.81,100.05-21.59,57.64-40.87,109.1-58.51,107.38-8.77-.86-12.16-14.39-31.52-66.84-23.18-62.82-22.63-55.12-31.22-81.15-31.09-94.24-34.73-184.34-27.25-185.91Z"/>
        <path id="Sombra-3" data-name="Sombra" class="cls-5" d="M1263.73,978.27c4.5-13.52,16.24-17.03,30.22-27.06,45.35-32.53,46.64-85.06,54.87-83.24,12.61,2.8-18.59,120.11-32.61,143.48-1.91,3.19-6.48,10.8-15.56,15-1.53.71-8.29,3.83-14.89,2.64-16.17-2.94-28.51-31.39-22.03-50.82Z"/>
        <path class="cls-2" d="M845.7,1399.22c17.36-20.71,19.97-48.71,14.12-60.56-5.76-11.66-10.63-13.77-23.3-11.61-8.38,1.43-16.94,1.79-25.42,2.62-.28-1.07-.56-2.15-.84-3.22,3.54-1.94,7.02-4.01,10.64-5.78,5.87-2.87,12.07-5.13,17.7-8.39,15.22-8.82,19.65-26.76,10.13-41.51-8.54-13.24-20.93-19.25-36.78-17.68-19.95,1.97-38.57,7.28-55.61,16.66-6.33,3.49-12.8,6.56-19.1,12.8-4.67,4.62-7.73,9.2-9.62,12.42-2.77-5.1-5.89-11.07-9.21-17.82,0,0-4.56-9.28-8.82-18.94-6.58-14.93-13.17-33.56-20.79-55.09-6.7-18.93-16.89-37.42-10.14-59.45-1.38,1.79-2.95,3.46-4.11,5.38-20,32.97-35.99,67.61-42.81,105.88-4.01,22.49-6.94,61.14,14.38,100.63,14.58,27.01,34.41,41.97,40.9,46.58,32.9,23.37,66.82,24.97,79.58,24.89,18.2-.11,56.05-.34,79.08-27.8Z"/>
        <path id="Sompra" class="cls-5" d="M709.68,1131.6c8.93,16.4-32.04,39.31-51.49,88.52-3.96,10.02-22.66,60.67.26,111.64,15.23,33.86,51.55,73.9,98.35,75.14,33.7.89,68.71-18.45,89.2-41.16,10.56-11.71,16.99-24,20.91-22.45,5.63,2.24,3.87,32.27-8.46,53.35-22.62,38.68-84.95,54.25-134.04,41.76-83.03-21.13-107.36-117.25-109.32-125.58-13.19-55.77,5.82-99.77,20.65-134.09,9.75-22.57,22.72-51.52,46.93-55.25,8.66-1.33,22.57-.03,27.01,8.12Z"/>
        <path class="cls-7" d="M1008.1,642.63c.75-4.39,26.8-9.4,45.9,2.98,21.24,13.77,26.04,43.95,22.04,46.19-3.17,1.78-10.39-14.91-33.64-30.75-20.02-13.63-34.88-15.03-34.3-18.43Z"/>
        <path class="cls-7" d="M1270.77,653.02c.65-3.35,34.5-6.76,62.02,11.15,26.9,17.5,37.55,48.74,34.75,50.75-2.49,1.79-14.5-20.41-44.68-39.39-28.91-18.18-52.64-19.66-52.09-22.5Z"/>
        <path class="cls-7" d="M791.36,1275.19c-.65-2.67,12.89-11.88,26.75-9.53,15.4,2.61,25.51,18.55,23.79,20.79-1.36,1.78-9.54-5.91-26.59-9.2-14.68-2.83-23.45.01-23.95-2.06Z"/>
      </g>
      <path class="cls-8" d="M1399.63,663.97c-20.01-22.88-44.22-39.66-72.26-51.2-44.61-18.34-88.82-7.55-119.28,29.8-23.23,28.49-30.6,61.58-28.52,98.4-6.61-12.26-13.56-24.34-19.77-36.8-21.58-43.33-45.94-82.24-90.57-108.41-79.97-46.91-160.03-93.43-243.37-134.05-29.09-14.18-58.56-28.2-89.12-38.56-45.61-15.46-66.87-3.95-80.3,42.28-12.32,42.37-22.81,85.33-32.63,128.36-18.34,80.38-35.65,160.99-53.3,241.52-3.52,16.06-2.53,31.77,3.7,47.22,29.63,73.43,59.02,146.95,88.74,220.34,2.37,5.86,2.26,10.11-1.67,15.21-29.02,37.66-48.09,79.85-59.03,126.19-11.68,49.43-3.09,96.46,21.22,133.35,33.79,51.29,89.6,66.36,100.75,69.41,16.41,4.48,29.5,5.24,33.43,5.41,10.15.46,32.35,1.22,56.65-7.82.4,1.71.82,3.5,1.26,5.38,4.62,19.76,6.37,27.78,7.34,32.15,9.56,43.31,35.29,71.9,76.74,85.39,19.74,6.43,40.58,10.64,61.24,12.82,71.9,7.58,142.62,1.01,211.12-23,54.41-19.07,105.67-44.17,147.94-84.58,24.02-22.96,40.93-48.6,47.95-78.06,4.59-19.25,2.92-37.58,1.89-54.02-1.79-28.26-7.14-51.35-11.82-67.36-14.22-72.23-33.96-143.38-51.02-215.06-.96-4.03-1.05-9.64,1.04-12.8,29.64-44.73,48.78-94.07,63.55-145.19,7.94-27.48,15.29-53.74,33.63-77.86,32.84-43.18,39.25-107.26-5.53-158.46ZM766.62,1427.02c-12.76.08-46.68-1.52-79.58-24.89-6.49-4.61-26.32-19.57-40.9-46.58-21.32-39.49-18.38-78.14-14.38-100.63,6.82-38.27,22.81-72.9,42.81-105.88,1.16-1.92,2.73-3.59,4.11-5.38-6.75,22.03,3.44,40.52,10.14,59.45,7.62,21.53,14.2,40.16,20.79,55.09,4.26,9.67,8.82,18.94,8.82,18.94,3.32,6.75,6.44,12.72,9.21,17.82,1.89-3.22,4.95-7.8,9.62-12.42,6.29-6.23,12.76-9.31,19.1-12.8,17.04-9.38,35.66-14.69,55.61-16.66,15.85-1.57,28.24,4.44,36.78,17.68,9.52,14.75,5.09,32.69-10.13,41.51-5.63,3.26-11.84,5.52-17.7,8.39-3.62,1.77-7.1,3.85-10.64,5.78.28,1.07.56,2.15.84,3.22,8.48-.84,17.04-1.19,25.42-2.62,12.67-2.17,17.54-.05,23.3,11.61,5.85,11.85,3.25,39.86-14.12,60.56-23.03,27.46-60.88,27.69-79.08,27.8ZM842.17,1429.57c25.09-18.5,45.55-48.35,45.42-71.29-.09-15.62-5.55-29.35-14.39-42.07-1.69-2.43-2.82-6.66-1.91-9.26,12.95-37.34-12-74.12-52.22-75.21-28.58-.78-54.79,8.14-78.81,23.52-1.32.85-2.74,1.54-5.3,2.96-11.04-30.41-22.53-59.98-32.39-90.07-5.27-16.08,3.54-27.27,19.53-27.1,80.47.85,160.95,1.63,241.42,3.06,33.15.59,43.98,9.67,54.23,41.91,19.64,61.77,39.25,123.55,58.85,185.33,7.72,24.34,15.38,48.69,23,73.05,7.08,22.63-5.71,43.4-29.27,45.52-68.21,6.14-136.46,11.72-204.7,17.49-4.71-7.1-8.27-15.26-10.53-24.51-4.34-17.77-8.64-35.56-12.93-53.34ZM1319.53,1239.54c2.59,11.95,5.03,23.91,7.37,35.9.34,1.77.68,3.52,1.01,5.23.71,3.71,1.41,7.41,2.09,11.12.52,2.81,1.02,5.51,1.49,8.11,1.86,10.3,3.64,20.61,5.34,30.93,2.04,12.87,2.55,18.85,2.69,25.56.27,12.94-.52,25.39-2.44,33.23-6.42,26.29-23.21,47.51-44.73,66.48-41.56,36.62-90.77,59.2-142.99,75.66-66.69,21.03-134.89,25.34-203.95,15.94-13.8-1.88-27.58-5.8-40.67-10.66-5.41-2.01-10.47-4.4-15.14-7.16,17.28-1.41,34.54-2.83,51.77-4.25,42.76-3.53,85.55-6.62,128.25-10.77,47.04-4.58,63.48-43.32,52.55-78.77-26.54-86.03-54.55-171.6-80.87-257.69-10.9-35.63-34.28-57.21-78.37-56.91-78.86.54-157.74-1.42-236.62-2.13-6.74-.06-13.49,1.41-21.25,2.28-8.66-21.74-17.5-43.86-26.3-66-23.92-60.21-43.38-122.41-71.85-180.61-.84-1.73-3.7-7.41-4.93-15.46-1.22-7.96-.23-14.28.21-16.95,10.6-63.99,41.96-197.63,41.96-197.63.69-3.17,6.61-29.83,8.08-35.95,9.87-41.01,19.69-82.03,29.84-122.97,2.12-8.54,5.18-16.89,8.45-25.08,4.98-12.49,10.74-15.59,23.82-11.6,13.11,3.99,26.22,8.44,38.63,14.2,32.05,14.89,63.71,30.6,95.5,46.04,2.32,1.13,116.34,63.45,168.21,92.67,1.74,1.04,36.2,20.94,37.89,21.9,18.01,10.19,42.42,37.29,51.54,48.92,85.17,108.73,153.81,342.47,153.81,342.47,24.12,73.46,43.25,148.36,59.62,223.98ZM1367.54,821.8c-7.89,7.33-12.03,15.09-14.29,25.52-11.86,54.62-30.9,106.74-56.69,156.36-1.26,2.42-3.05,4.55-5.3,7.87-9.59-26.23-18.53-51.03-27.72-75.73-5.81-15.62-12.59-30.91-17.77-46.73-2.31-7.07-2.86-15.16-2.27-22.63,1.13-14.31,3.29-28.56,5.7-42.73,1.74-10.24-1.17-18.35-7.7-26.17-12.25-14.65-22.21-30.68-27.47-49.35-11.3-40.13,4.47-82.93,39.25-105.81,11.19-7.36,23.87-8.74,36.78-8.12,42.44,2.03,97.77,46.65,107.1,88.15,8.56,38.08-.43,72.27-29.61,99.36Z"/>
      <path id="Mão" class="cls-8" d="M1351.4,774.42c-6.58,18.7-20.63,28.39-38.69,28.95-18.96.59-34.72-9.02-41.19-27.09-2.85-7.97-6.6-10.66-14.82-11.69-11.11-1.39-20.75-6.73-25.75-19.59,12.03,2.37,22.66,4.47,33.96,6.7,3.66-19.82,11.25-35.63,28.52-44.58.86.5,1.72,1.01,2.58,1.51-1.77,3.01-3.41,6.12-5.34,9.02-9.3,13.93-13.87,29.17-9.71,45.6,5.46,21.54,29.96,31.64,51.33,21.76,5.98-2.77,11.57-6.38,19.11-10.6Z"/>
      <g>
        <g>
          <path class="cls-3" d="M1096.2,1052.49c-14.44-7.76-32.83-5.52-45.92,5.74,3.32.55,9.63,2.1,12.57,6.89.34.55,1.42,2.32.86,2.98-.7.83-3.44-.69-7.7-2.3,0,0-3.74-1.41-9.2-2.74-3.01-.73-5.91-1.06-13.97-.95-10.51.14-15.79.11-18.62.9-7.54,2.09-14.36,6.35-20.48,12.57-5.56,5.66-6.48,11.48.45,16.41,13.52,9.62,26.7,19.99,41.18,27.9,15.82,8.65,33.4,10.55,51.4,6.41,16.49-3.79,27.03-13.93,29.26-29,1.87-12.66-1.11-34.74-19.85-44.82Z"/>
          <path class="cls-8" d="M1102.6,980.3c-24.93,24.32-54.5,40.5-87.61,50.31-14.44,4.28-28.92,8.83-43.83,10.93-2.78.39-8.33,1.11-10.05,4.77-3.04,6.47,7.78,18.01,10.27,20.67,3.06,3.27,5.96,5.55,7.87,6.94,14.84-18.95,31.45-26.17,53.71-25.01,4.33.23,9.47-1.28,13.1-3.7,19.35-12.9,43.54-13.59,60.8-.65,12.37,9.28,19.17,22.09,23.58,37.6,1.11-3.25,2.45-6.44,3.31-9.76,7.24-27.87,7.19-55.64-.84-83.4-6.81-23.55-13.03-25.56-30.3-8.72Z"/>
          <path id="Boca" class="cls-8" d="M1150.57,1004.66c3.15,16.11,6.79,48.01-7.98,81.78-5.87,13.42-14.08,31.93-33.55,43.65-24.01,14.46-54.17,12.54-79.01.99-27.73-12.9-50.59-32.48-69.22-56.63-5.04-6.53-8.86-14.57-11.17-22.51-3.19-10.99.81-17.6,11.96-20.83,14.42-4.18,29.27-6.86,43.74-10.88,34.56-9.62,65.8-25.27,90.94-51.61,2.25-2.35,4.77-4.5,7.39-6.43,7.1-5.22,14.16-7.04,20.34-5.31,2.53.71,6.89,2.47,13.34,12.19,4.37,6.57,10.69,18.25,13.21,35.59ZM1062.86,1065.12c.34.55,1.42,2.32.86,2.98-.7.83-3.44-.69-7.7-2.3,0,0-3.74-1.41-9.2-2.74-3.01-.73-5.91-1.06-13.97-.95-10.51.14-15.79.11-18.62.9-7.54,2.09-14.36,6.35-20.48,12.57-5.56,5.66-6.48,11.48.45,16.41,13.52,9.62,26.7,19.99,41.18,27.9,15.82,8.65,33.4,10.55,51.4,6.41,16.49-3.79,27.03-13.93,29.26-29,1.87-12.66-1.11-34.74-19.85-44.82-14.44-7.76-32.83-5.52-45.92,5.74,3.32.55,9.63,2.1,12.57,6.89ZM1130.43,1082.18c1.11-3.25,2.45-6.44,3.31-9.76,7.24-27.87,7.19-55.64-.84-83.4-6.81-23.55-13.03-25.56-30.3-8.72-24.93,24.32-54.5,40.5-87.61,50.31-14.44,4.28-28.92,8.83-43.83,10.93-2.78.39-8.33,1.11-10.05,4.77-3.04,6.47,7.78,18.01,10.27,20.67,3.06,3.27,5.96,5.55,7.87,6.94,14.84-18.95,31.45-26.17,53.71-25.01,4.33.23,9.47-1.28,13.1-3.7,19.35-12.9,43.54-13.59,60.8-.65,12.37,9.28,19.17,22.09,23.58,37.6Z"/>
        </g>
        <g id="Olhos">
          <path id="Olho" class="cls-7" d="M951.45,981.49c-2.87,30.37-28.63,65.66-62.18,67.13-37.87,1.65-62-40.83-69.72-65.47-11.68-37.28-2.86-88.21,23.92-99.55,36.53-15.47,113.48,39.77,107.98,97.9Z"/>
          <path class="cls-8" d="M835.7,908.27c34.59,1.66,48.63,26.28,61.51,51.72,9.14,18.05,14.33,37.17,11.5,57.81-3.67,26.76-22.94,37.42-46.38,24.62-26.37-14.4-39.79-38.98-48.37-66.44-6.14-19.66-7.53-39.75-1.55-59.97,10.67-36.08,48.42-52.55,81.45-34.52,34.01,18.56,51.67,48.83,58.48,86.15.14.79-.29,1.68-.73,3.94-4.23-9.79-7.53-18.58-11.72-26.92-10.1-20.1-24.52-36.33-44.96-46.33-22.65-11.08-41.82-7.94-59.21,9.95Z"/>
          <path class="cls-8" d="M1097.09,875.35c11.09-5.74,34.48-15.56,58.3-7.56,9.24,3.11,19.95,9.37,19.13,13.19-.95,4.44-16.52,1.59-41.83,9.9-6.24,2.05-10.88,3.74-17,6.93-12.13,6.34-22.69,15.15-31.75,26.08-5.19,6.27-10.67,14.47-19.92,10.74-9.28-3.74-7.88-13.92-6.89-21.63,4.23-32.85,16.95-61.83,43.33-82.97,4.13-3.31,12.59-9.89,22.94-9.3,1.6.09,8.17.47,9.74,4.16,1.16,2.72-.91,6.06-3.71,9.92-10.56,14.53-19.14,19.39-26.97,31.04-2.63,3.91-4.35,7.35-5.34,9.5Z"/>
          <path class="cls-8" d="M781.22,872.93c-7.46-16.87,7.44-56.98,34.93-66.03,3.23-1.06,14.52-4.78,22.37.89.29.21,5.74,4.71,5.72,10.05,0,2.73-4.07,7.13-7.06,7.9-13.73,3.5-36.39,27.02-43.92,46.27-.99,2.54-2.83,7.95-5.73,8.09-3.07.14-5.65-5.69-6.31-7.18Z"/>
          <path class="cls-8" d="M1046.16,714.48c19.11-6.16,42.91,5.14,46.92,19.23,1.13,3.96,1.09,9.56-1.52,11.14-3.52,2.12-8.39-5.02-20.3-7.93-3.6-.88-10.27-2.41-17.56-.18-5.03,1.54-9.39,5.01-18.11,11.96-5.74,4.57-7.72,6.76-9.97,6.04-3.42-1.1-4.41-7.95-4.18-12.21.19-3.43,1.25-6.81,3.5-10.57,1.83-3.05,8.67-13.43,21.22-17.48Z"/>
        </g>
      </g>
    </g>
  </g>
</svg>